<svg width="25" height="25" viewBox="0 0 25 25" fill="none" xmlns="http://www.w3.org/2000/svg">
<path d="M24.3262 10.8738C24.3254 10.8732 24.3248 10.8725 24.3243 10.8719L14.1262 0.674248C13.6915 0.239372 13.1136 0 12.4989 0C11.8841 0 11.3062 0.239372 10.8713 0.674248L0.67866 10.8667C0.675227 10.8702 0.671603 10.8738 0.668361 10.8772C-0.224279 11.775 -0.222753 13.2317 0.672748 14.1272C1.08187 14.5365 1.62204 14.7734 2.19977 14.7984C2.22342 14.8006 2.24707 14.8018 2.27092 14.8018H2.67718V22.3064C2.67718 23.7917 3.88568 25 5.37093 25H9.36072C9.76527 25 10.0931 24.6719 10.0931 24.2676V18.3838C10.0931 17.7061 10.6446 17.1549 11.3222 17.1549H13.6755C14.3532 17.1549 14.9044 17.7061 14.9044 18.3838V24.2676C14.9044 24.6719 15.2323 25 15.6369 25H19.6266C21.1121 25 22.3204 23.7917 22.3204 22.3064V14.8018H22.6973C23.3118 14.8018 23.8898 14.5624 24.3248 14.1273C25.2213 13.2305 25.2217 11.7712 24.3262 10.8738ZM23.2889 13.0917C23.1308 13.2498 22.9206 13.3369 22.6973 13.3369H21.588C21.1834 13.3369 20.8555 13.6648 20.8555 14.0694V22.3064C20.8555 22.9839 20.3043 23.5352 19.6266 23.5352H16.3693V18.3838C16.3693 16.8985 15.161 15.69 13.6755 15.69H11.3222C9.83679 15.69 8.6283 16.8985 8.6283 18.3838V23.5352H5.37093C4.69344 23.5352 4.14202 22.9839 4.14202 22.3064V14.0694C4.14202 13.6648 3.81415 13.3369 3.4096 13.3369H2.31936C2.30792 13.3362 2.29666 13.3356 2.28503 13.3354C2.06683 13.3316 1.86217 13.245 1.70882 13.0915C1.38266 12.7653 1.38266 12.2345 1.70882 11.9081C1.70901 11.9081 1.70901 11.908 1.7092 11.9078L1.70977 11.9072L11.9074 1.70994C12.0653 1.55182 12.2753 1.46484 12.4989 1.46484C12.7222 1.46484 12.9322 1.55182 13.0904 1.70994L23.2857 11.9051C23.2872 11.9066 23.2889 11.9081 23.2905 11.9097C23.6149 12.2364 23.6143 12.7661 23.2889 13.0917Z" fill="white"/>
</svg>
