<svg width="23" height="17" viewBox="0 0 23 17" fill="none" xmlns="http://www.w3.org/2000/svg">
<path d="M2.5016 8.27631C2.51087 8.19557 2.51087 8.11401 2.5016 8.03326C2.48006 7.95283 2.44867 7.8754 2.40812 7.80268C2.37603 7.72622 2.33634 7.65315 2.28971 7.58456C2.24652 7.51546 2.19409 7.45256 2.13391 7.3976C1.64778 6.91434 0.862617 6.91434 0.376479 7.3976C0.142388 7.63029 0.0101523 7.94629 0.00878906 8.27631C0.011204 8.44057 0.0428705 8.60303 0.10227 8.75618C0.133508 8.82991 0.171056 8.9008 0.214446 8.96807C0.261849 9.0358 0.316145 9.09847 0.376479 9.15503C0.431555 9.21509 0.49442 9.26752 0.56344 9.31083C0.629071 9.35866 0.700194 9.39843 0.775329 9.42924C0.851321 9.46122 0.930818 9.48424 1.01215 9.49779C1.09188 9.51567 1.17348 9.52404 1.2552 9.52272C1.33594 9.53203 1.4175 9.53203 1.49825 9.52272C1.57755 9.50913 1.65498 9.48611 1.72883 9.45417C1.80599 9.42355 1.87922 9.38379 1.94695 9.33576C2.01597 9.29245 2.07884 9.24002 2.13391 9.17996C2.19397 9.12488 2.2464 9.06202 2.28971 8.993C2.33762 8.92741 2.37739 8.85628 2.40812 8.78111C2.45069 8.69838 2.48213 8.61035 2.5016 8.51936C2.51118 8.43862 2.51118 8.35706 2.5016 8.27631Z" fill="white"/>
<path d="M2.49281 15.249C2.50208 15.1682 2.50208 15.0867 2.49281 15.0059C2.47127 14.9255 2.43988 14.8481 2.39933 14.7753C2.36724 14.6989 2.32755 14.6258 2.28092 14.5572C2.23773 14.4881 2.1853 14.4252 2.12512 14.3703C1.63899 13.887 0.853828 13.887 0.36769 14.3703C0.133599 14.6029 0.00136326 14.9189 0 15.249C0.00241491 15.4132 0.0340814 15.5757 0.0934805 15.7288C0.124719 15.8026 0.162267 15.8735 0.205657 15.9407C0.25306 16.0085 0.307356 16.0711 0.36769 16.1277C0.422766 16.1877 0.485631 16.2402 0.554651 16.2835C0.620282 16.3313 0.691405 16.3711 0.76654 16.4019C0.842532 16.4339 0.922029 16.4569 1.00336 16.4704C1.08309 16.4883 1.16469 16.4967 1.24641 16.4954C1.32715 16.5047 1.40871 16.5047 1.48946 16.4954C1.56876 16.4818 1.64619 16.4588 1.72004 16.4268C1.7972 16.3962 1.87043 16.3564 1.93816 16.3084C2.00718 16.2651 2.07005 16.2127 2.12512 16.1526C2.18518 16.0975 2.23761 16.0347 2.28092 15.9657C2.32883 15.9001 2.3686 15.8289 2.39933 15.7538C2.44191 15.671 2.47334 15.583 2.49281 15.492C2.5024 15.4113 2.5024 15.3297 2.49281 15.249Z" fill="white"/>
<path d="M2.49281 1.24897C2.50208 1.16823 2.50208 1.08666 2.49281 1.00592C2.47127 0.925489 2.43988 0.848056 2.39933 0.775336C2.36724 0.698877 2.32755 0.625806 2.28092 0.557215C2.23773 0.488117 2.1853 0.425213 2.12512 0.370254C1.63899 -0.113001 0.853828 -0.113001 0.36769 0.370254C0.133599 0.602942 0.00136326 0.918945 0 1.24897C0.00241491 1.41322 0.0340814 1.57568 0.0934805 1.72884C0.124719 1.80257 0.162267 1.87346 0.205657 1.94073C0.25306 2.00846 0.307356 2.07113 0.36769 2.12769C0.422766 2.18775 0.485631 2.24018 0.554651 2.28349C0.620282 2.33132 0.691405 2.37109 0.76654 2.4019C0.842532 2.43387 0.922029 2.45689 1.00336 2.47045C1.08309 2.48833 1.16469 2.4967 1.24641 2.49538C1.32715 2.50469 1.40871 2.50469 1.48946 2.49538C1.56876 2.48178 1.64619 2.45876 1.72004 2.42682C1.7972 2.39621 1.87043 2.35644 1.93816 2.30842C2.00718 2.2651 2.07005 2.21268 2.12512 2.15262C2.18518 2.09754 2.23761 2.03467 2.28092 1.96565C2.32883 1.90006 2.3686 1.82894 2.39933 1.75376C2.44191 1.67103 2.47334 1.58301 2.49281 1.49202C2.5024 1.41128 2.5024 1.32971 2.49281 1.24897Z" fill="white"/>
<path d="M21.3102 7.02734H6.07944C5.31474 7.02734 4.69482 7.58699 4.69482 8.27734C4.69482 8.9677 5.31474 9.52734 6.07944 9.52734H21.3102C22.0749 9.52734 22.6948 8.9677 22.6948 8.27734C22.6948 7.58699 22.0749 7.02734 21.3102 7.02734Z" fill="white"/>
<path d="M16.9758 14H5.71019C5.14457 14 4.68604 14.5596 4.68604 15.25C4.68604 15.9404 5.14457 16.5 5.71019 16.5H16.9758C17.5415 16.5 18 15.9404 18 15.25C18 14.5596 17.5415 14 16.9758 14Z" fill="white"/>
<path d="M21.3014 0H6.07065C5.30595 0 4.68604 0.559648 4.68604 1.25C4.68604 1.94035 5.30595 2.5 6.07065 2.5H21.3014C22.0661 2.5 22.686 1.94035 22.686 1.25C22.686 0.559648 22.0661 0 21.3014 0Z" fill="white"/>
</svg>
