<svg width="131" height="66" viewBox="0 0 131 66" fill="none" xmlns="http://www.w3.org/2000/svg">
<path d="M127.924 65.9458C127.972 65.936 128.02 65.9228 128.068 65.9104C128.109 65.8999 128.151 65.8912 128.191 65.8788C128.238 65.8645 128.284 65.8468 128.33 65.8302C128.371 65.8155 128.412 65.8024 128.452 65.7854C128.495 65.7673 128.537 65.7463 128.579 65.7263C128.62 65.7067 128.662 65.6887 128.702 65.6668C128.743 65.6454 128.781 65.6209 128.82 65.5976C128.86 65.5735 128.901 65.5509 128.94 65.5245C128.982 65.4967 129.021 65.4658 129.061 65.4357C129.095 65.4105 129.129 65.3867 129.162 65.3596C129.223 65.3096 129.281 65.2561 129.338 65.2011C129.348 65.1913 129.359 65.1831 129.369 65.1729C129.38 65.1624 129.389 65.1507 129.399 65.1398C129.453 65.0841 129.506 65.0268 129.555 64.9666C129.584 64.9312 129.61 64.8943 129.637 64.8578C129.665 64.8201 129.694 64.7836 129.72 64.7445C129.748 64.7027 129.772 64.6594 129.798 64.6165C129.819 64.5803 129.842 64.545 129.862 64.5077C129.886 64.4644 129.905 64.4196 129.926 64.3755C129.944 64.3364 129.964 64.2976 129.981 64.2573C129.999 64.214 130.013 64.17 130.029 64.1259C130.045 64.083 130.061 64.0405 130.074 63.9968C130.088 63.9524 130.098 63.9072 130.109 63.862C130.12 63.8176 130.133 63.7739 130.141 63.7291C130.152 63.6761 130.158 63.6226 130.166 63.5691C130.171 63.5315 130.178 63.4942 130.182 63.4562C130.191 63.3625 130.196 63.2687 130.196 63.1746V2.82352C130.196 1.26381 128.932 0 127.373 0H38.4318C38.4069 0 38.3829 0.00300969 38.358 0.00376263C38.3042 0.00526851 38.2507 0.00752852 38.1973 0.0120462C38.1547 0.0154344 38.1125 0.0203294 38.0704 0.0259765C38.0222 0.032 37.9744 0.0391524 37.9266 0.0478112C37.8818 0.0557171 37.8373 0.0651281 37.7933 0.0752928C37.7485 0.0858339 37.7037 0.0971291 37.6593 0.109929C37.6152 0.122353 37.5719 0.135903 37.529 0.150209C37.485 0.165268 37.4409 0.181082 37.3976 0.1984C37.3566 0.214588 37.3163 0.23115 37.2764 0.249221C37.232 0.269174 37.1879 0.290635 37.1443 0.312847C37.107 0.332047 37.0705 0.351622 37.0343 0.372328C36.9907 0.397175 36.9477 0.423528 36.9052 0.450634C36.8702 0.473222 36.8359 0.496562 36.8021 0.520279C36.7621 0.548515 36.7226 0.57788 36.6838 0.60875C36.6485 0.636985 36.6138 0.665974 36.5796 0.695716C36.5457 0.725457 36.5122 0.755197 36.4794 0.78682C36.4422 0.822585 36.4064 0.859855 36.371 0.897502C36.3533 0.916325 36.3345 0.932891 36.3175 0.952091C36.3074 0.963385 36.2995 0.97581 36.2897 0.987104C36.2543 1.02814 36.2212 1.07106 36.188 1.11435C36.1639 1.14597 36.1391 1.1776 36.1165 1.20997C36.0871 1.25214 36.06 1.29543 36.0329 1.3391C36.0107 1.37487 35.9878 1.41025 35.9674 1.44677C35.9437 1.48894 35.923 1.53223 35.9015 1.57552C35.882 1.61505 35.8616 1.65458 35.8439 1.69487C35.8255 1.73741 35.8093 1.78145 35.7931 1.82475C35.7769 1.86729 35.7604 1.90945 35.7464 1.95237C35.7325 1.99566 35.7212 2.03971 35.7092 2.08376C35.6971 2.12893 35.6843 2.17373 35.6742 2.21929C35.6647 2.26183 35.6583 2.30512 35.6508 2.34804C35.6425 2.39698 35.6342 2.44592 35.6282 2.49486C35.6233 2.53552 35.6211 2.57693 35.6181 2.61834C35.6143 2.67105 35.6109 2.72376 35.6102 2.77684C35.6098 2.79227 35.6079 2.80733 35.6079 2.82277V20.2352C35.6079 21.7949 36.8717 23.0588 38.4314 23.0588C39.9911 23.0588 41.2549 21.7949 41.2549 20.2352V9.09362L66.3583 31.3193C66.2273 31.4115 66.1012 31.5135 65.9837 31.6306L41.2546 56.3597V37.8043C41.2546 36.2446 39.9908 34.9808 38.431 34.9808C36.8713 34.9808 35.6075 36.2446 35.6075 37.8043V41.2543H21.0193C19.4596 41.2543 18.1958 42.5181 18.1958 44.0778C18.1958 45.6375 19.4596 46.9013 21.0193 46.9013H35.6075V63.1765C35.6075 64.7362 36.8713 66 38.431 66H127.372C127.465 66 127.558 65.9951 127.651 65.9861C127.694 65.9819 127.736 65.9736 127.778 65.9676C127.827 65.9609 127.875 65.9552 127.924 65.9458ZM124.549 56.3601L99.8193 31.631C99.8035 31.6152 99.7865 31.602 99.7703 31.5869L118.362 15.814C119.55 14.805 119.697 13.0236 118.688 11.8343C117.679 10.6458 115.898 10.499 114.708 11.5083L82.941 38.4598L45.8799 5.64742H124.549V56.3601ZM69.9773 35.6246C70.1787 35.4231 70.3421 35.1988 70.4697 34.9601L81.0301 44.3097C81.5639 44.7822 82.2325 45.0194 82.9019 45.0194C83.5517 45.0194 84.2011 44.7961 84.7289 44.3489L95.491 35.218C95.5889 35.361 95.6992 35.4977 95.8261 35.6246L120.555 60.3537H45.2481L69.9773 35.6246Z" fill="#65B1EC"/>
<path d="M2.82352 32.1568H50.5098C52.0695 32.1568 53.3333 30.893 53.3333 29.3333C53.3333 27.7736 52.0695 26.5098 50.5098 26.5098H2.82352C1.26381 26.5098 0 27.7736 0 29.3333C0 30.893 1.26381 32.1568 2.82352 32.1568Z" fill="#65B1EC"/>
<path d="M7.76493 16.5963H29.1766C30.7363 16.5963 32.0002 15.3325 32.0002 13.7727C32.0002 12.213 30.7363 10.9492 29.1766 10.9492H7.76493C6.20521 10.9492 4.94141 12.213 4.94141 13.7727C4.94141 15.3325 6.20521 16.5963 7.76493 16.5963Z" fill="#65B1EC"/>
<path d="M23.5293 53.1758H2.82352C1.26381 53.1758 0 54.4396 0 55.9993C0 57.559 1.26381 58.8228 2.82352 58.8228H23.5293C25.0891 58.8228 26.3529 57.559 26.3529 55.9993C26.3529 54.4396 25.0891 53.1758 23.5293 53.1758Z" fill="#65B1EC"/>
</svg>
