<svg width="535" height="1024" viewBox="0 0 535 1024" fill="none" xmlns="http://www.w3.org/2000/svg">
<g clip-path="url(#clip0)">
<rect width="535" height="1024" fill="white"/>
<path d="M535 0H0V1024H535V0Z" fill="#E8E8E8"/>
<path d="M440 1008.19C594.64 1008.19 720 896.33 720 758.34C720 620.35 594.64 508.487 440 508.487C285.36 508.487 160 620.35 160 758.34C160 896.33 285.36 1008.19 440 1008.19Z" fill="#65B1EC"/>
<path d="M98.0001 368.851C252.64 368.851 378 256.988 378 118.998C378 -18.9915 252.64 -130.854 98.0001 -130.854C-56.6397 -130.854 -182 -18.9915 -182 118.998C-182 256.988 -56.6397 368.851 98.0001 368.851Z" fill="#FF8021"/>
<path d="M152 478.627H30V523.417H152V478.627Z" fill="#FADB71"/>
<path d="M165 491.801H45V535.712H165V491.801Z" stroke="#65B1EC" stroke-width="2"/>
<path d="M336.662 710.811L308.137 685.325" stroke="#FADB71" stroke-width="2"/>
<path d="M336.662 693.234L308.137 667.748" stroke="#FADB71" stroke-width="2"/>
<path d="M336.662 675.657L308.137 650.171" stroke="#FADB71" stroke-width="2"/>
<path d="M336.662 658.081L308.137 632.595" stroke="#FADB71" stroke-width="2"/>
<path d="M336.662 640.505L308.137 615.018" stroke="#FADB71" stroke-width="2"/>
<path d="M336.662 622.928L308.136 597.442" stroke="#FADB71" stroke-width="2"/>
<path d="M336.662 605.351L308.136 579.865" stroke="#FADB71" stroke-width="2"/>
<path d="M336.662 587.775L308.137 562.289" stroke="#FADB71" stroke-width="2"/>
<path d="M336.662 570.198L308.136 544.712" stroke="#FADB71" stroke-width="2"/>
<path d="M336.662 552.622L308.137 527.136" stroke="#FADB71" stroke-width="2"/>
<path d="M336.662 535.045L308.137 509.559" stroke="#FADB71" stroke-width="2"/>
<path d="M336.662 517.469L308.137 491.983" stroke="#FADB71" stroke-width="2"/>
<path d="M91.7354 710.811L120.261 736.297" stroke="#EBA363" stroke-width="2"/>
<path d="M111.408 710.811L139.934 736.297" stroke="#EBA363" stroke-width="2"/>
<path d="M131.081 710.811L159.607 736.297" stroke="#EBA363" stroke-width="2"/>
<path d="M150.754 710.811L179.28 736.297" stroke="#EBA363" stroke-width="2"/>
<path d="M170.427 710.811L198.953 736.297" stroke="#EBA363" stroke-width="2"/>
<path d="M190.1 710.811L218.626 736.297" stroke="#EBA363" stroke-width="2"/>
<path d="M209.772 710.811L238.298 736.296" stroke="#EBA363" stroke-width="2"/>
<path d="M229.445 710.811L257.971 736.297" stroke="#EBA363" stroke-width="2"/>
<path d="M249.118 710.811L277.644 736.297" stroke="#EBA363" stroke-width="2"/>
<path d="M268.791 710.811L297.317 736.297" stroke="#EBA363" stroke-width="2"/>
<path d="M288.464 710.811L316.99 736.297" stroke="#EBA363" stroke-width="2"/>
<path d="M308.137 710.811L336.663 736.297" stroke="#EBA363" stroke-width="2"/>
<path d="M486.581 174.487L454.851 202.837L443.237 164.11L486.581 174.487Z" fill="#65B1EC"/>
<path d="M216.838 1005.36L172.24 1000.92L198.84 968.629L216.838 1005.36Z" fill="#FF8021"/>
<path d="M430.5 384.659C440.165 384.659 448 377.778 448 369.29C448 360.802 440.165 353.921 430.5 353.921C420.835 353.921 413 360.802 413 369.29C413 377.778 420.835 384.659 430.5 384.659Z" fill="#C95B3B"/>
<path d="M66.5 814.106C76.165 814.106 84 807.225 84 798.737C84 790.249 76.165 783.369 66.5 783.369C56.835 783.369 49 790.249 49 798.737C49 807.225 56.835 814.106 66.5 814.106Z" fill="#FADB71"/>
<path d="M454.5 369.29C454.5 381.423 443.522 391.245 430 391.245C416.478 391.245 405.5 381.423 405.5 369.29C405.5 357.156 416.478 347.334 430 347.334C443.522 347.334 454.5 357.156 454.5 369.29Z" stroke="#65B1EC"/>
<path d="M90.5 798.737C90.5 810.871 79.5217 820.693 66 820.693C52.4783 820.693 41.5 810.871 41.5 798.737C41.5 786.604 52.4783 776.782 66 776.782C79.5217 776.782 90.5 786.604 90.5 798.737Z" stroke="#E97661"/>
</g>
<defs>
<clipPath id="clip0">
<rect width="535" height="1024" fill="white"/>
</clipPath>
</defs>
</svg>
