<svg width="27" height="23" viewBox="0 0 27 23" fill="none" xmlns="http://www.w3.org/2000/svg">
<path d="M13.2019 8.97309C15.6758 8.97309 17.6884 6.96044 17.6884 4.48655C17.6884 2.01265 15.6758 0 13.2019 0C10.728 0 8.71533 2.01265 8.71533 4.48655C8.71533 6.96044 10.728 8.97309 13.2019 8.97309ZM13.2019 1.54709C14.8227 1.54709 16.1413 2.86572 16.1413 4.48655C16.1413 6.10738 14.8227 7.42601 13.2019 7.42601C11.581 7.42601 10.2624 6.10738 10.2624 4.48655C10.2624 2.86572 11.581 1.54709 13.2019 1.54709Z" fill="white"/>
<path d="M22.2782 8.97343C23.8422 8.97343 25.1145 7.70105 25.1145 6.1371C25.1145 4.57316 23.8422 3.30078 22.2782 3.30078C20.7143 3.30078 19.4419 4.57316 19.4419 6.1371C19.4419 7.70105 20.7143 8.97343 22.2782 8.97343ZM22.2782 4.84787C22.9891 4.84787 23.5675 5.42622 23.5675 6.1371C23.5675 6.84799 22.9891 7.42634 22.2782 7.42634C21.5673 7.42634 20.989 6.84799 20.989 6.1371C20.989 5.42622 21.5673 4.84787 22.2782 4.84787Z" fill="white"/>
<path d="M22.902 10.7266H21.7056C20.2957 10.7266 19.0787 11.5595 18.5241 12.7559C17.3823 11.5095 15.7423 10.7266 13.9227 10.7266H12.481C10.6614 10.7266 9.02131 11.5095 7.87951 12.7559C7.32488 11.5595 6.10784 10.7266 4.69798 10.7266H3.50157C1.57081 10.7266 0 12.2879 0 14.207V19.8389C0 20.6721 0.680408 21.3499 1.51676 21.3499H6.24708C6.32639 22.273 7.10262 23.0001 8.04598 23.0001H18.3577C19.301 23.0001 20.0772 22.273 20.1566 21.3499H24.8328C25.699 21.3499 26.4036 20.648 26.4036 19.7853V14.207C26.4036 12.2879 24.8328 10.7266 22.902 10.7266ZM1.54709 14.207C1.54709 13.1409 2.42387 12.2736 3.50157 12.2736H4.69798C5.77568 12.2736 6.65247 13.1409 6.65247 14.207V14.7367C6.13229 16.0911 6.23991 16.9028 6.23991 19.8028H1.54709V14.207ZM18.6166 21.1941C18.6166 21.3369 18.5005 21.453 18.3577 21.453H8.04593C7.90313 21.453 7.787 21.3368 7.787 21.1941V16.9676C7.787 14.3793 9.89268 12.2736 12.4809 12.2736H13.9226C16.5109 12.2736 18.6166 14.3793 18.6166 16.9676V21.1941ZM24.8565 19.7853C24.8565 19.8119 25.1449 19.8028 20.1637 19.8028C20.1637 16.8813 20.2705 16.0889 19.7511 14.7367V14.207C19.7511 13.1409 20.6279 12.2736 21.7056 12.2736H22.902C23.9797 12.2736 24.8565 13.1409 24.8565 14.207V19.7853Z" fill="white"/>
<path d="M4.12539 8.97343C5.68933 8.97343 6.96171 7.70105 6.96171 6.1371C6.96171 4.57316 5.68933 3.30078 4.12539 3.30078C2.56144 3.30078 1.28906 4.57316 1.28906 6.1371C1.28906 7.70105 2.56144 8.97343 4.12539 8.97343ZM4.12539 4.84787C4.83627 4.84787 5.41462 5.42622 5.41462 6.1371C5.41462 6.84799 4.83627 7.42634 4.12539 7.42634C3.4145 7.42634 2.83615 6.84799 2.83615 6.1371C2.83615 5.42622 3.4145 4.84787 4.12539 4.84787Z" fill="white"/>
</svg>
