<svg width="26" height="18" viewBox="0 0 26 18" fill="none" xmlns="http://www.w3.org/2000/svg">
<path d="M25.7931 8.23679C25.5626 7.90045 20.0685 0 13.0002 0C5.93076 0 0.437273 7.90053 0.206818 8.23687C-0.0689394 8.6394 -0.0689394 9.17011 0.206818 9.57272C0.437273 9.90899 5.93076 17.8097 13.0002 17.8097C20.0685 17.8097 25.5626 9.90906 25.7931 9.5728C26.0689 9.17019 26.0689 8.6394 25.7931 8.23679ZM13.0002 15.446C8.25051 15.446 4.06262 10.6901 2.65752 8.90373C4.06025 7.11564 8.23712 2.36363 13.0002 2.36363C17.748 2.36363 21.9354 7.11753 23.3417 8.90475C21.9348 10.6928 17.7477 15.446 13.0002 15.446Z" fill="#65B1EC"/>
<path d="M13.0003 5.62278C11.1869 5.62278 9.71716 7.09036 9.71716 8.90461C9.71716 10.7189 11.1869 12.1865 13.0003 12.1865C14.8124 12.1865 16.2833 10.7189 16.2833 8.90461C16.2833 7.09036 14.8124 5.62278 13.0003 5.62278Z" fill="#65B1EC"/>
</svg>
