<svg width="23" height="23" viewBox="0 0 23 23" fill="none" xmlns="http://www.w3.org/2000/svg">
<path d="M11.5 23C8.42824 23 5.5403 21.8038 3.36824 19.6318C1.19618 17.4597 0 14.5718 0 11.5C0 8.42824 1.19622 5.54035 3.36824 3.36824C5.54026 1.19613 8.42824 0 11.5 0C14.5718 0 17.4597 1.19618 19.6318 3.36824C21.8038 5.5403 23 8.42824 23 11.5C23 14.5718 21.8038 17.4597 19.6318 19.6318C17.4597 21.8039 14.5718 23 11.5 23ZM11.5 1.4375C5.95152 1.4375 1.4375 5.95152 1.4375 11.5C1.4375 17.0485 5.95152 21.5625 11.5 21.5625C17.0485 21.5625 21.5625 17.0485 21.5625 11.5C21.5625 5.95152 17.0485 1.4375 11.5 1.4375Z" fill="white"/>
<path d="M11.5 10.7812C10.5092 10.7812 9.70312 9.97517 9.70312 8.98438C9.70312 7.99358 10.5092 7.1875 11.5 7.1875C12.4908 7.1875 13.2969 7.99358 13.2969 8.98438C13.2969 9.3813 13.6187 9.70312 14.0156 9.70312C14.4126 9.70312 14.7344 9.3813 14.7344 8.98438C14.7344 7.448 13.6572 6.15933 12.2188 5.83149V5.03125C12.2188 4.63432 11.897 4.3125 11.5 4.3125C11.103 4.3125 10.7812 4.63432 10.7812 5.03125V5.83149C9.34276 6.15933 8.26562 7.448 8.26562 8.98438C8.26562 10.7678 9.71656 12.2188 11.5 12.2188C12.4908 12.2188 13.2969 13.0248 13.2969 14.0156C13.2969 15.0064 12.4908 15.8125 11.5 15.8125C10.5092 15.8125 9.70312 15.0064 9.70312 14.0156C9.70312 13.6187 9.38135 13.2969 8.98438 13.2969C8.5874 13.2969 8.26562 13.6187 8.26562 14.0156C8.26562 15.552 9.34276 16.8407 10.7812 17.1685V17.9688C10.7812 18.3657 11.103 18.6875 11.5 18.6875C11.897 18.6875 12.2188 18.3657 12.2188 17.9688V17.1685C13.6572 16.8407 14.7344 15.552 14.7344 14.0156C14.7344 12.2322 13.2834 10.7812 11.5 10.7812Z" fill="white"/>
</svg>
