<svg width="26" height="26" viewBox="0 0 26 26" fill="none" xmlns="http://www.w3.org/2000/svg">
<path d="M22.7844 6.51112L22.2458 7.04981C21.8057 7.48993 21.2205 7.73231 20.598 7.73231C19.9755 7.73231 19.3904 7.48993 18.9502 7.04981C18.5101 6.60969 18.2677 6.02448 18.2677 5.40206C18.2677 4.77963 18.5101 4.19443 18.9502 3.75426L19.4889 3.21557L16.2733 0L0 16.2733L3.21557 19.4889L3.75426 18.9502C4.19438 18.5101 4.77958 18.2677 5.40206 18.2677C6.02454 18.2677 6.60964 18.5101 7.04981 18.9502C7.48993 19.3903 7.73231 19.9755 7.73231 20.5979C7.73231 21.2204 7.48993 21.8056 7.04981 22.2457L6.51112 22.7844L9.72669 26L26 9.72669L22.7844 6.51112ZM8.61301 22.7315C9.03129 22.1047 9.256 21.3686 9.256 20.5979C9.256 19.5685 8.85513 18.6007 8.12718 17.8728C7.39929 17.1449 6.43145 16.744 5.40206 16.744C4.6314 16.744 3.89528 16.9687 3.26848 17.387L2.15475 16.2733L16.2733 2.15475L17.387 3.26848C16.9687 3.89528 16.744 4.6314 16.744 5.40206C16.744 6.4315 17.1449 7.39929 17.8728 8.12718C18.6007 8.85513 19.5686 9.256 20.5979 9.256C21.3686 9.256 22.1047 9.03129 22.7315 8.61301L23.8452 9.72669L9.72669 23.8452L8.61301 22.7315Z" fill="white"/>
<path d="M15.1814 9.73513L14.104 10.8125L15.1857 11.8942L16.263 10.8168L15.1814 9.73513Z" fill="white"/>
<path d="M13.0183 7.57303L11.9409 8.65039L13.0226 9.73206L14.1 8.6547L13.0183 7.57303Z" fill="white"/>
<path d="M17.3449 11.8992L16.2676 12.9766L17.3493 14.0582L18.4266 12.9809L17.3449 11.8992Z" fill="white"/>
</svg>
